<svg xmlns="http://www.w3.org/2000/svg" xmlns:xlink="http://www.w3.org/1999/xlink" version="1.1" x="0px" y="0px" viewBox="0 0 90 112.5" enable-background="new 0 0 90 90" xml:space="preserve"><path d="M75.419,46.458l-0.035-0.548C74.434,29.566,65.858,3.085,46.907,1.611c-1.163-0.091-2.362-0.087-3.568,0.011  c-11.578,0.949-18.034,11.455-21.88,19.274c-4.897,9.969-6.987,21.614-6.217,34.609c0.293,4.954,1.794,10.85,4.01,15.767  c3.792,8.455,12.29,14.767,22.181,16.475c0.65,0.112,1.308,0.192,1.971,0.244c10.355,0.806,22.253-5.636,27.091-14.665  C74.317,66.203,75.974,57.167,75.419,46.458z M68.002,71.991C63.388,80.61,51.6,86.635,41.914,84.963  c-8.978-1.548-16.671-7.238-20.083-14.849c-2.083-4.624-3.494-10.147-3.768-14.776c-0.74-12.502,1.256-23.669,5.935-33.196  c2.258-4.59,5.154-9.614,9.195-13.146c0.295-0.258,0.612-0.486,0.92-0.728l-3.435,8.734l6.196,6.436l-3.157,11.956l6.188-11.939  l-6.93-7.492l4.797-9.972c1.757-0.822,3.675-1.381,5.796-1.554c1.055-0.087,2.107-0.089,3.12-0.01  c17.16,1.335,24.979,26.253,25.878,41.666l0.031,0.52C73.125,56.791,71.582,65.329,68.002,71.991z"/><text x="0" y="105" fill="#000000" font-size="0px" font-weight="bold" font-family="'Helvetica Neue', Helvetica, Arial-Unicode, Arial, Sans-serif">Created by Marcus Michaels</text><text x="0" y="110" fill="#000000" font-size="0px" font-weight="bold" font-family="'Helvetica Neue', Helvetica, Arial-Unicode, Arial, Sans-serif">from the Noun Project</text></svg>
